<svg xmlns="http://www.w3.org/2000/svg" viewBox="0 0 841.9 595.3">
  <g fill="#61DAFB">
    <circle cx="420.9" cy="296.5" r="45.7" />
    <path d="M520.5 78.1c-40.5-23.4-105.1 7.8-144.7 69.7-39.6-61.9-104.2-93-144.7-69.7-40.5 23.3-39.5 93.5 2.5 155.5-42 62.1-42.8 132.3-2.3 155.6 40.5 23.4 105.1-7.8 144.7-69.7 39.6 61.9 104.2 93 144.7 69.7 40.5-23.3 39.5-93.5-2.5-155.5 42-62.1 42.8-132.3 2.3-155.6zm-300.7 313.5c-20-12.2-17.2-48.2 6.2-85.8 23.4 37.6 26.2 73.6 6.2 85.8zm-6.2-231.3c-23.4-37.6-26.2-73.6-6.2-85.8 20 12.2 17.2 48.2-6.2 85.8zm213.3 114.1c-23.4 37.6-59.3 57.1-85.8 37.6s-26.2-73.6-6.2-85.8c20-12.2 59.3 7.6 85.8 37.6zm106.2 117.2c-20 12.2-59.3-7.6-85.8-37.6 23.4-37.6 59.3-57.1 85.8-37.6 20 12.2 17.2 48.2-6.2 85.8zm6.2-231.3c20-12.2 17.2-48.2-6.2-85.8-23.4 37.6-26.2 73.6-6.2 85.8z"/>
  </g>
</svg>