<svg xmlns="http://www.w3.org/2000/svg" viewBox="0 0 128 128" id="spotify">
  <circle cx="64" cy="64" r="60" fill="#00ce52"></circle>
  <path fill="#fff" d="M72.8 91.61a3.75 3.75 0 0 1-3.22-1.82 17.85 17.85 0 0 0-24.47-6.13 3.75 3.75 0 0 1-3.86-6.44A25.39 25.39 0 0 1 76 85.93a3.75 3.75 0 0 1-3.22 5.68Z"></path>
  <path fill="#fff" d="M83.23 79a4.68 4.68 0 0 1-4-2.28 26.57 26.57 0 0 0-36.41-9.12 4.69 4.69 0 1 1-4.82-8 36 36 0 0 1 49.24 12.3 4.68 4.68 0 0 1-4 7.09Z"></path>
  <path fill="#fff" d="M98.79 68.79A5.61 5.61 0 0 1 94 66.06a43.13 43.13 0 0 0-59.2-14.82 5.63 5.63 0 0 1-5.8-9.65 54.37 54.37 0 0 1 74.6 18.69 5.62 5.62 0 0 1-1.93 7.72 5.5 5.5 0 0 1-2.88.79Z"></path>
</svg>
